<?xml version="1.0" standalone="no"?><!DOCTYPE svg PUBLIC "-//W3C//DTD SVG 1.1//EN" "http://www.w3.org/Graphics/SVG/1.1/DTD/svg11.dtd"><svg t="1668620370290" class="icon" viewBox="0 0 1024 1024" version="1.1" xmlns="http://www.w3.org/2000/svg" p-id="14161" xmlns:xlink="http://www.w3.org/1999/xlink" width="200" height="200"><path d="M472 144v316c0 6.6-5.4 12-12 12H144c-6.6 0-12-5.4-12-12V144c0-6.6 5.4-12 12-12h316c6.6 0 12 5.4 12 12z" fill="#FAD60E" p-id="14162"></path><path d="M564 132h108c6.6 0 12 5.4 12 12v113.3c0 6.6-5.4 12-12 12H564c-6.6 0-12-5.4-12-12V144c0-6.6 5.4-12 12-12z" fill="#F5461A" p-id="14163"></path><path d="M892 144v113.3c0 6.6-5.4 12-12 12H776c-6.6 0-12-5.4-12-12V144c0-6.6 5.4-12 12-12h104c6.6 0 12 5.4 12 12z" fill="#C61700" p-id="14164"></path><path d="M776 349.3h104c6.6 0 12 5.4 12 12V460c0 6.6-5.4 12-12 12H776c-6.6 0-12-5.4-12-12v-98.7c0-6.6 5.4-12 12-12z" fill="#69B209" p-id="14165"></path><path d="M264.5 564v316c0 6.6-5.4 12-12 12H144c-6.6 0-12-5.4-12-12V564c0-6.6 5.4-12 12-12h108.5c6.6 0 12 5.4 12 12z" fill="#F9AB10" p-id="14166"></path><path d="M356.5 552H460c6.6 0 12 5.4 12 12v316c0 6.6-5.4 12-12 12H356.5c-6.6 0-12-5.4-12-12V564c0-6.6 5.4-12 12-12z" fill="#F9980D" p-id="14167"></path><path d="M892 766.7V880c0 6.6-5.4 12-12 12H564c-6.6 0-12-5.4-12-12V766.7c0-6.6 5.4-12 12-12h316c6.6 0 12 5.4 12 12z" fill="#551FEA" p-id="14168"></path><path d="M564 552h316c6.6 0 12 5.4 12 12v98.7c0 6.6-5.4 12-12 12H564c-6.6 0-12-5.4-12-12V564c0-6.6 5.4-12 12-12z" fill="#6F2AFF" p-id="14169"></path><path d="M564 349.3h108c6.6 0 12 5.4 12 12V460c0 6.6-5.4 12-12 12H564c-6.6 0-12-5.4-12-12v-98.7c0-6.6 5.4-12 12-12z" fill="#A6DB20" p-id="14170"></path></svg>